<svg version="1.2" xmlns="http://www.w3.org/2000/svg" viewBox="0 0 140 138" width="140" height="138">
	<style>
		.s0 { fill: #201f1f } 
		.s1 { fill: none;stroke: #d92323;stroke-width: 1.3 } 
		.s2 { opacity: .3;fill: #ee0f0f;stroke: #d92323;stroke-linecap: square;stroke-width: 1.3 } 
	</style>
	<g>
		<g>
			<g>
				<path fill-rule="evenodd" class="s0" d="m137 0c1.66 0 3 1.34 3 3v132c0 1.66-1.34 3-3 3h-137v-138zm-74.5 41c-15.46 0-28 12.54-28 28 0 15.46 12.54 28 28 28 15.46 0 28-12.54 28-28 0-15.46-12.54-28-28-28z"/>
				<path fill-rule="evenodd" class="s1" d="m62.5 41c15.46 0 28 12.54 28 28 0 15.46-12.54 28-28 28-15.46 0-28-12.54-28-28 0-15.46 12.54-28 28-28z"/>
				<path fill-rule="evenodd" class="s2" d="m62.5 9v16m30-7.96l-8 13.86m29.96 8.1l-13.85 8m21.89 22h-16m7.96 30l-13.85-8m-8.11 29.96l-8-13.85m-22 21.89v-16m-30 7.96l8-13.85m-29.96-8.11l13.85-8m-21.89-22h16m-7.96-30l13.85 8m8.11-29.96l8 13.85"/>
			</g>
		</g>
	</g>
</svg>